# xmcd CD database file
#
# Track frame offsets:
#	150
#	15822
#	36397
#	54075
#	69882
#	87730
#	105435
#	124527
#	142315
#	162752
#	183855
#	200037
#
# Disc length: 2783 seconds
#
# Revision: 0
# Processed by: cddbd v1.5.1PL0 Copyright (c) Steve Scherf et al.
# Submitted via: CDex 1.51
#
DISCID=990add0c
DTITLE=Various Artist - アロハの贈りもの 〜ハワイアン・スタイルで聴くJ-POPS〜
DYEAR=2003
DGENRE=J-POP
TTITLE0=明日があるさ 〜サーフィン編〜
TTITLE1=私も「I LOVE YOU」
TTITLE2=ジョニーの子守歌
TTITLE3=YOUR EYES
TTITLE4=上を向いて歩こう
TTITLE5=気分爽快
TTITLE6=Za Za Za
TTITLE7=愛は勝つ
TTITLE8=寂しい熱帯魚
TTITLE9=今夜だけきっと
TTITLE10=倖せさがして
TTITLE11=明日がある沙 〜サーフィン編〜(reprise)
EXTD=YEAR: 2003
EXTT0=
EXTT1=
EXTT2=
EXTT3=
EXTT4=
EXTT5=
EXTT6=
EXTT7=
EXTT8=
EXTT9=
EXTT10=
EXTT11=
PLAYORDER=
